HIERARCHY
ROOT Pelvis
{
	OFFSET 0.000000 0.000000 0.000000
	CHANNELS 6 Xposition Yposition Zposition Xrotation Yrotation Zrotation
	JOINT LeftUpLeg_virtual
	{
		OFFSET 0.000000 0.000000 0.000000
		CHANNELS 3 Xrotation Yrotation Zrotation
		JOINT LeftUpLeg
		{
			OFFSET 18.735201 -5.666702 -4.541200
			CHANNELS 3 Xrotation Yrotation Zrotation
			JOINT LeftLeg
			{
				OFFSET -0.021200 -31.938179 0.493100
				CHANNELS 3 Xrotation Yrotation Zrotation
				JOINT LeftFoot
				{
					OFFSET 0.021200 -31.938179 -4.336299
					CHANNELS 3 Xrotation Yrotation Zrotation
					JOINT LeftToeBase
					{
						OFFSET 0.943001 -26.722000 15.023500
						CHANNELS 3 Xrotation Yrotation Zrotation
						End Site
						{
							OFFSET 0 0 0
						}
					}
				}
			}
		}
	}
	JOINT RightUpLeg_virtual
	{
		OFFSET 0.000000 0.000000 0.000000
		CHANNELS 3 Xrotation Yrotation Zrotation
		JOINT RightUpLeg
		{
			OFFSET -18.735201 -5.666702 -4.541200
			CHANNELS 3 Xrotation Yrotation Zrotation
			JOINT RightLeg
			{
				OFFSET 0.018946 -31.938133 0.493100
				CHANNELS 3 Xrotation Yrotation Zrotation
				JOINT RightFoot
				{
					OFFSET -0.018946 -31.938126 -4.336299
					CHANNELS 3 Xrotation Yrotation Zrotation
					JOINT RightToeBase
					{
						OFFSET -0.943001 -26.722004 15.023500
						CHANNELS 3 Xrotation Yrotation Zrotation
						End Site
						{
							OFFSET 0 0 0
						}
					}
				}
			}
		}
	}
	JOINT Hips_virtual
	{
		OFFSET 0.000000 0.000000 0.000000
		CHANNELS 3 Xrotation Yrotation Zrotation
		JOINT Hips
		{
			OFFSET -0.000000 -0.000000 -0.000000
			CHANNELS 3 Xrotation Yrotation Zrotation
			JOINT Spine
			{
				OFFSET 0.000000 10.199997 -0.299500
				CHANNELS 3 Xrotation Yrotation Zrotation
				JOINT Spine1
				{
					OFFSET 0.000000 11.900002 -1.516600
					CHANNELS 3 Xrotation Yrotation Zrotation
					JOINT Spine2
					{
						OFFSET 0.000000 13.600006 -2.842500
						CHANNELS 3 Xrotation Yrotation Zrotation
						JOINT Neck_virtual
						{
							OFFSET 0.000000 0.000000 0.000000
							CHANNELS 3 Xrotation Yrotation Zrotation
							JOINT Neck
							{
								OFFSET 0.000000 9.624100 -2.890100
								CHANNELS 3 Xrotation Yrotation Zrotation
								JOINT Head
								{
									OFFSET 0.000000 14.068802 -1.351900
									CHANNELS 3 Xrotation Yrotation Zrotation
									End Site
									{
										OFFSET 0 0 0
									}
								}
							}
						}
						JOINT LeftShoulder_virtual
						{
							OFFSET 0.000000 0.000000 0.000000
							CHANNELS 3 Xrotation Yrotation Zrotation
							JOINT LeftShoulder
							{
								OFFSET 15.263000 10.923401 -0.547700
								CHANNELS 3 Xrotation Yrotation Zrotation
								JOINT LeftArm
								{
									OFFSET 25.438599 -2.830597 -13.032500
									CHANNELS 3 Xrotation Yrotation Zrotation
									JOINT LeftForeArm
									{
										OFFSET 29.960503 0.000000 0.000000
										CHANNELS 3 Xrotation Yrotation Zrotation
										JOINT LeftHand
										{
											OFFSET 27.849251 0.000000 0.000000
											CHANNELS 3 Xrotation Yrotation Zrotation
											End Site
											{
												OFFSET 0 0 0
											}
										}
									}
								}
							}
						}
						JOINT RightShoulder_virtual
						{
							OFFSET 0.000000 0.000000 0.000000
							CHANNELS 3 Xrotation Yrotation Zrotation
							JOINT RightShoulder
							{
								OFFSET -15.263000 10.923401 -0.547700
								CHANNELS 3 Xrotation Yrotation Zrotation
								JOINT RightArm
								{
									OFFSET -25.438599 -2.830597 -13.032500
									CHANNELS 3 Xrotation Yrotation Zrotation
									JOINT RightForeArm
									{
										OFFSET -29.960503 0.000000 0.000000
										CHANNELS 3 Xrotation Yrotation Zrotation
										JOINT RightHand
										{
											OFFSET -27.849251 0.000000 0.000000
											CHANNELS 3 Xrotation Yrotation Zrotation
											End Site
											{
												OFFSET 0 0 0
											}
										}
									}
								}
							}
						}
					}
				}
			}
		}
	}
}
MOTION
Frames: 8
Frame Time: 0.03333333
-16.795647 90.702965 51.207375 0.000000 0.000000 0.000000 28.961132 8.237299 -18.182238 -71.382826 -9.887721 16.557208 22.256544 6.322029 -11.989363 21.012956 1.170549 3.156077 0.000000 0.000000 0.000000 28.948213 8.638578 -18.719252 -0.448978 -11.272462 -16.515985 60.580834 -10.437622 2.909876 34.075588 20.706702 17.310170 0.000000 0.000000 0.000000 28.869615 8.389118 -18.672357 -0.730353 -0.102104 -0.078853 9.101119 14.698075 -6.239275 6.128467 9.379115 -4.166494 0.000000 0.000000 0.000000 2.844048 10.656232 -4.361508 0.799851 -0.600441 2.759504 0.000000 0.000000 0.000000 6.485139 10.300932 -3.779793 -2.191773 -2.959923 0.228264 29.086706 -28.683646 -10.009608 5.964626 -46.867471 3.648796 0.000000 0.000000 0.000000 4.820496 10.544754 -5.815828 15.908228 11.854059 -13.344061 -19.768190 52.570743 19.128349 -7.730289 61.350303 20.583047 0.000000 0.000000 0.000000 
-17.055578 90.583466 51.996906 0.000000 0.000000 0.000000 26.730022 8.222375 -17.274609 -70.499375 -8.728493 18.542555 25.711206 4.473116 -12.822737 17.090392 -0.932679 0.806820 0.000000 0.000000 0.000000 26.749355 8.745616 -17.764528 -4.066698 -10.200841 -15.269571 58.557281 -10.589775 2.357785 34.286508 21.547206 14.366113 0.000000 0.000000 0.000000 26.586545 8.412242 -17.792959 -0.724918 -0.080804 -0.098690 9.907316 13.267499 -6.260748 6.640846 8.484996 -4.686446 0.000000 0.000000 0.000000 2.873953 9.662957 -4.775609 0.611751 -0.661047 2.699321 0.000000 0.000000 0.000000 7.063102 9.217877 -4.165890 -2.614652 -5.114795 1.504766 26.228808 -27.849883 -4.645712 3.959401 -48.688064 1.850422 0.000000 0.000000 0.000000 4.969519 9.553211 -6.057200 15.402951 10.896318 -12.965407 -21.605015 50.597574 12.529810 -8.435512 56.122230 25.578328 0.000000 0.000000 0.000000 
-17.097139 90.559097 52.851219 0.000000 0.000000 0.000000 24.437288 8.081128 -16.554104 -69.551263 -7.377014 20.774748 29.091589 2.611326 -13.635739 15.409100 -2.525498 -1.600965 0.000000 0.000000 0.000000 24.430936 8.570231 -16.961371 -7.701260 -9.574077 -14.348921 56.270954 -10.344926 2.192638 34.590916 22.341074 11.279760 0.000000 0.000000 0.000000 24.285434 8.192852 -17.020767 -0.722728 -0.079061 -0.106943 10.418134 11.674927 -6.282894 7.185976 7.486998 -5.119976 0.000000 0.000000 0.000000 3.290136 8.564893 -5.151099 0.553432 -0.730867 2.627969 0.000000 0.000000 0.000000 7.627928 8.037679 -4.588159 -3.064867 -7.451098 2.925491 21.374297 -27.641062 -1.599554 1.349691 -49.129916 0.306534 0.000000 0.000000 0.000000 5.165712 8.487326 -6.192276 14.857152 9.759717 -13.686663 -22.699502 49.534403 6.465968 -8.106433 51.181961 29.286366 0.000000 0.000000 0.000000 
-16.980392 90.653877 53.821266 0.000000 0.000000 0.000000 22.152315 7.705398 -15.978410 -68.586943 -6.036624 23.007731 32.869763 0.813170 -14.206627 14.843900 -3.654859 -3.552666 0.000000 0.000000 0.000000 22.037457 8.096234 -16.311964 -11.492517 -9.205118 -13.984058 53.989886 -9.970333 2.234592 34.345569 22.823487 8.393023 0.000000 0.000000 0.000000 22.053491 7.693934 -16.310968 -0.719976 -0.096792 -0.092961 10.691426 9.846816 -6.348568 7.802300 6.343291 -5.364019 0.000000 0.000000 0.000000 4.112795 7.311600 -5.350701 0.595296 -0.803141 2.562349 0.000000 0.000000 0.000000 8.199902 6.734594 -4.901273 -3.539423 -9.757770 4.409413 14.432856 -27.872472 -0.957330 -1.513259 -47.988994 -0.686199 0.000000 0.000000 0.000000 5.509499 7.303068 -6.141917 14.181938 8.582235 -15.280530 -22.778852 48.503164 0.671336 -7.641414 47.707294 32.262586 0.000000 0.000000 0.000000 
-16.693190 90.848709 54.827820 0.000000 0.000000 0.000000 19.987408 6.902354 -15.476906 -67.287895 -5.016297 24.939802 36.757609 -1.065912 -14.234719 13.280383 -4.774713 -5.132134 0.000000 0.000000 0.000000 19.741086 7.208677 -15.780761 -15.193950 -8.673485 -13.917848 51.464198 -9.674249 2.126906 33.256864 22.743490 6.000424 0.000000 0.000000 0.000000 19.946000 6.846572 -15.681389 -0.713531 -0.123283 -0.054873 10.791725 7.871825 -6.458803 8.545782 5.041610 -5.393765 0.000000 0.000000 0.000000 5.155255 5.899995 -5.312865 0.677866 -0.878095 2.504929 0.000000 0.000000 0.000000 8.759520 5.288402 -5.043469 -4.049276 -11.880682 5.879149 5.884506 -28.263815 -2.436428 -4.210182 -45.826379 -0.893373 0.000000 0.000000 0.000000 6.128478 5.976965 -5.908265 13.308804 7.473979 -17.377815 -22.254218 46.990762 -4.800626 -7.759703 46.537812 34.900525 0.000000 0.000000 0.000000 
-16.299099 91.043114 55.893124 0.000000 0.000000 0.000000 18.056831 5.560687 -15.032633 -65.431785 -4.268629 26.692811 40.516248 -2.926938 -13.735742 9.947281 -5.883159 -6.406941 0.000000 0.000000 0.000000 17.704093 5.841035 -15.372526 -18.434698 -8.017931 -13.965755 48.188757 -9.580442 1.895602 30.593937 22.061301 4.470364 0.000000 0.000000 0.000000 18.021500 5.556685 -15.164022 -0.706312 -0.132724 -0.016249 10.877005 5.858632 -6.547193 9.326022 3.623464 -5.231155 0.000000 0.000000 0.000000 6.210558 4.380053 -5.070477 0.728155 -0.959000 2.466162 0.000000 0.000000 0.000000 9.203974 3.729670 -4.987660 -4.553253 -13.707459 7.386717 -3.351976 -28.381053 -5.295679 -6.639933 -43.478529 -0.537298 0.000000 0.000000 0.000000 6.889625 4.533123 -5.500150 12.170314 6.457756 -19.518495 -22.918604 45.018914 -8.803406 -8.678885 47.918179 37.303338 0.000000 0.000000 0.000000 
-15.782587 91.194572 57.020561 0.000000 0.000000 0.000000 16.370468 3.696974 -14.716032 -63.195424 -3.402063 28.506018 43.914104 -4.271286 -13.029650 5.184719 -6.699821 -7.298464 0.000000 0.000000 0.000000 15.924980 3.991005 -15.052782 -21.044793 -7.443567 -13.931101 43.682164 -9.576481 1.807365 27.080703 21.089606 4.002208 0.000000 0.000000 0.000000 16.366726 3.849168 -14.815474 -0.704577 -0.104290 -0.002552 10.998420 3.950517 -6.466091 10.056098 2.161556 -4.923430 0.000000 0.000000 0.000000 7.081342 2.815656 -4.698466 0.664485 -1.048583 2.441528 0.000000 0.000000 0.000000 9.391135 2.142974 -4.761966 -4.969649 -15.085291 8.860068 -12.222536 -28.266951 -8.626785 -8.758741 -41.751092 0.097456 0.000000 0.000000 0.000000 7.585124 3.038451 -5.006494 10.783562 5.459680 -21.431307 -26.298872 43.194782 -9.916744 -10.289373 51.143616 39.290711 0.000000 0.000000 0.000000 
-15.125717 91.304398 58.141758 0.000000 0.000000 0.000000 14.956113 1.400047 -14.551868 -61.015173 -2.226255 30.455165 46.787875 -4.883029 -12.361979 0.020193 -6.995185 -7.578933 0.000000 0.000000 0.000000 14.487511 1.708072 -14.851907 -23.083437 -7.049890 -13.653206 37.513940 -9.516039 2.021554 24.484239 20.234779 4.624615 0.000000 0.000000 0.000000 15.003515 1.801108 -14.658021 -0.704164 -0.049029 -0.014907 11.034179 2.304541 -6.038440 10.592248 0.734488 -4.550053 0.000000 0.000000 0.000000 7.598147 1.305687 -4.287276 0.465416 -1.156731 2.431686 0.000000 0.000000 0.000000 9.255493 0.620727 -4.430479 -5.248547 -15.998270 10.354309 -19.911239 -28.212370 -11.836067 -10.640870 -41.234610 0.655075 0.000000 0.000000 0.000000 8.077891 1.560319 -4.517582 9.250402 4.468930 -22.847025 -33.319633 41.889297 -7.227166 -12.107334 55.218149 40.551690 0.000000 0.000000 0.000000 
